<?xml version="1.0" standalone="no"?>
<!DOCTYPE svg PUBLIC "-//W3C//DTD SVG 20010904//EN"
 "http://www.w3.org/TR/2001/REC-SVG-20010904/DTD/svg10.dtd">
<svg version="1.0" xmlns="http://www.w3.org/2000/svg"
 width="2400.000000pt" height="2400.000000pt" viewBox="0 0 2400.000000 2400.000000"
 preserveAspectRatio="xMidYMid meet">

<g transform="translate(0.000000,2400.000000) scale(0.100000,-0.100000)"
fill="#000000" stroke="none">
<path d="M13788 18623 c-25 -13 -28 -19 -28 -66 0 -58 16 -84 65 -107 70 -34
214 -222 245 -320 7 -25 21 -61 31 -80 14 -29 38 -138 63 -285 2 -16 11 -52
19 -80 8 -27 13 -53 10 -57 -2 -4 -23 8 -47 26 -24 18 -66 44 -92 56 -27 13
-67 39 -88 57 -22 18 -44 33 -49 33 -5 0 -21 8 -35 19 -15 10 -74 42 -132 72
-58 29 -119 63 -136 76 -17 13 -36 23 -41 23 -16 0 -105 41 -135 61 -14 11
-50 27 -80 36 -29 9 -60 22 -68 28 -8 7 -28 15 -45 19 -16 4 -58 21 -93 37
-34 16 -68 29 -76 29 -8 0 -29 8 -48 17 -71 36 -84 41 -118 48 -19 4 -48 13
-65 19 -16 7 -64 23 -105 37 -41 13 -79 26 -85 30 -15 9 -76 30 -115 39 -59
14 -73 18 -145 43 -77 27 -173 47 -223 47 -17 0 -34 5 -37 10 -3 6 -35 10 -70
10 -35 0 -67 5 -70 10 -3 6 -23 10 -44 10 -20 0 -62 4 -92 10 -30 5 -81 12
-114 15 -33 3 -94 10 -135 16 -148 18 -361 26 -695 26 -373 0 -581 -12 -675
-37 -19 -5 -62 -12 -95 -15 -85 -8 -138 -15 -155 -22 -8 -4 -46 -12 -85 -19
-117 -21 -179 -34 -200 -44 -11 -5 -45 -14 -75 -21 -30 -7 -62 -16 -70 -20
-24 -13 -142 -49 -161 -49 -10 0 -20 -4 -24 -9 -3 -5 -22 -15 -43 -21 -46 -14
-89 -33 -222 -99 -58 -28 -110 -51 -116 -51 -10 0 -35 -13 -155 -85 -55 -32
-101 -59 -159 -93 -30 -18 -73 -48 -95 -67 -22 -19 -44 -35 -48 -35 -5 0 -23
-11 -41 -25 -17 -13 -49 -38 -71 -55 -69 -52 -210 -164 -230 -183 -18 -16
-221 -209 -237 -225 -29 -30 -131 -140 -165 -179 -23 -26 -57 -67 -77 -89 -20
-23 -36 -44 -36 -46 0 -3 -18 -24 -41 -48 -22 -23 -69 -86 -104 -139 -35 -53
-78 -114 -94 -136 -17 -22 -39 -56 -48 -75 -10 -19 -23 -39 -29 -45 -25 -24
-104 -157 -104 -176 0 -6 -13 -29 -29 -52 -39 -58 -96 -166 -105 -201 -4 -16
-16 -41 -27 -54 -10 -14 -19 -31 -19 -38 0 -13 -10 -36 -32 -74 -36 -62 -97
-218 -98 -248 0 -7 -9 -33 -20 -58 -39 -85 -52 -125 -70 -209 -4 -22 -17 -67
-28 -100 -11 -33 -26 -91 -32 -130 -7 -38 -16 -74 -20 -80 -5 -5 -11 -37 -15
-70 -4 -33 -13 -92 -21 -132 -8 -40 -14 -87 -14 -105 0 -53 -7 -122 -14 -140
-8 -18 -2 -562 7 -642 3 -27 9 -66 12 -87 4 -21 8 -53 11 -71 12 -97 25 -173
37 -225 8 -32 20 -84 27 -116 8 -32 17 -60 22 -63 4 -3 8 -15 8 -27 0 -20 20
-86 37 -127 4 -8 8 -22 9 -30 7 -52 148 -360 164 -360 6 0 10 -8 10 -18 0 -10
19 -47 43 -81 23 -35 47 -71 52 -79 68 -105 139 -209 155 -226 34 -35 112
-122 160 -176 25 -28 58 -58 74 -67 16 -8 41 -26 55 -40 14 -13 43 -33 64 -44
45 -23 50 -44 8 -36 -21 4 -34 1 -46 -13 -9 -10 -23 -16 -31 -13 -12 4 -75
-23 -149 -66 -16 -9 -34 -27 -40 -39 -5 -12 -17 -22 -25 -22 -22 0 -120 -105
-120 -129 0 -13 -12 -26 -30 -36 -17 -9 -30 -24 -30 -34 0 -10 -6 -24 -14 -30
-8 -7 -18 -26 -21 -42 -4 -16 -10 -29 -14 -29 -4 0 -14 -19 -21 -42 -8 -24
-22 -59 -32 -78 -10 -19 -18 -43 -18 -53 0 -10 -4 -27 -10 -37 -5 -10 -10 -33
-12 -51 -1 -19 -5 -39 -10 -45 -5 -6 -11 -45 -14 -85 -3 -41 -7 -98 -10 -127
-3 -40 1 -64 18 -99 19 -41 20 -47 6 -57 -13 -9 -14 -23 -8 -81 5 -39 13 -90
19 -115 6 -25 13 -55 16 -67 3 -13 13 -23 21 -23 12 0 15 -6 10 -24 -3 -14 -1
-37 5 -53 6 -15 15 -37 19 -48 4 -11 15 -36 23 -55 9 -19 20 -46 26 -60 6 -14
23 -45 38 -70 16 -25 43 -71 61 -103 19 -31 45 -66 58 -76 13 -10 24 -23 24
-28 0 -14 260 -283 274 -283 7 0 21 -8 32 -17 51 -47 141 -108 177 -119 9 -4
17 -10 17 -14 0 -4 19 -13 43 -20 23 -8 47 -18 54 -22 9 -7 10 -94 7 -351 -5
-358 -6 -372 -23 -452 -20 -99 -23 -111 -37 -173 -8 -34 -12 -66 -9 -71 3 -6
-4 -26 -15 -46 -11 -19 -20 -41 -20 -48 0 -6 -9 -34 -19 -62 -36 -95 -61 -183
-61 -213 0 -18 -7 -35 -16 -40 -8 -5 -26 -38 -38 -73 -12 -36 -37 -91 -54
-122 -18 -32 -32 -69 -32 -81 0 -13 -8 -34 -19 -47 -10 -13 -24 -42 -31 -64
-8 -22 -22 -48 -32 -57 -10 -9 -21 -30 -24 -48 -4 -17 -20 -44 -35 -60 -16
-16 -29 -38 -29 -49 0 -11 -5 -23 -10 -26 -6 -3 -19 -25 -31 -48 -30 -60 -55
-105 -67 -119 -5 -7 -13 -28 -17 -45 -3 -18 -13 -36 -20 -40 -18 -10 -85 -109
-85 -125 0 -7 -9 -24 -20 -38 -11 -14 -20 -31 -20 -37 0 -7 -7 -13 -15 -13 -8
0 -22 -12 -32 -27 -10 -16 -35 -50 -55 -78 -21 -27 -38 -55 -38 -62 0 -6 -8
-18 -19 -25 -10 -7 -30 -31 -45 -53 -15 -22 -39 -54 -54 -70 -64 -72 -156
-239 -167 -305 -7 -39 -6 -40 22 -40 15 0 42 4 58 9 26 7 36 4 65 -20 19 -16
41 -29 50 -29 13 0 42 -13 188 -84 25 -13 42 -28 42 -38 0 -14 8 -18 36 -18
21 0 47 -8 61 -20 14 -11 34 -20 44 -20 11 0 19 -4 19 -10 0 -5 9 -10 20 -10
17 0 151 -58 215 -92 11 -6 47 -25 80 -41 33 -16 68 -34 77 -38 10 -5 24 -9
32 -9 8 0 40 -13 71 -30 31 -16 62 -30 69 -30 12 0 78 -32 99 -48 7 -5 35 -15
62 -22 28 -7 54 -17 60 -21 5 -5 19 -9 32 -9 13 0 28 -9 35 -20 7 -11 23 -20
36 -20 45 0 212 -63 212 -79 0 -5 19 -11 43 -14 59 -7 140 -27 152 -38 5 -5
16 -9 26 -9 9 0 28 -9 42 -20 14 -11 34 -20 44 -20 11 0 23 -3 27 -7 4 -4 28
-9 54 -10 26 -2 51 -8 56 -13 6 -6 18 -10 28 -10 10 0 18 -7 18 -16 0 -12 6
-15 22 -11 12 4 28 1 34 -4 7 -6 28 -12 46 -14 33 -3 125 -29 208 -59 25 -9
55 -16 68 -16 22 0 28 -2 90 -33 19 -9 46 -17 62 -17 16 0 41 -5 57 -11 32
-13 137 -39 171 -43 12 -1 28 -8 34 -14 7 -7 19 -12 27 -12 9 0 29 -7 45 -15
15 -8 38 -12 51 -9 13 3 37 -1 53 -10 17 -9 43 -16 57 -16 27 0 65 -16 76 -31
3 -5 33 -11 67 -13 33 -3 75 -12 91 -20 17 -9 48 -16 70 -16 22 0 43 -5 47
-11 3 -6 17 -8 31 -4 14 3 31 1 39 -5 7 -7 18 -9 23 -5 6 3 20 1 32 -6 30 -15
61 3 76 44 6 18 20 55 31 82 11 28 26 66 33 85 7 19 21 55 32 80 11 25 25 56
30 70 5 14 15 39 22 55 31 69 44 103 59 156 10 31 24 65 31 75 8 11 15 32 15
47 0 15 9 47 20 69 11 23 20 49 20 58 0 9 3 20 8 24 7 8 11 36 12 91 0 29 12
68 32 111 5 11 9 27 8 35 -6 37 1 97 13 112 10 14 18 15 52 6 22 -6 58 -18 80
-28 22 -10 71 -29 108 -41 37 -13 70 -27 73 -31 3 -5 24 -9 47 -9 23 0 58 -8
77 -19 36 -19 147 -50 210 -58 19 -3 43 -9 52 -14 9 -5 32 -9 50 -9 19 0 38
-4 43 -9 24 -21 667 -43 699 -24 5 3 39 7 75 8 37 1 77 8 90 15 14 7 37 9 57
5 26 -4 34 -2 34 9 0 11 9 13 40 9 33 -5 40 -3 40 11 0 19 -3 18 38 6 24 -6
46 -5 75 4 23 8 78 21 122 31 44 9 98 25 120 35 22 9 62 24 89 31 27 8 51 20
53 26 3 8 14 11 27 7 15 -3 31 3 51 23 20 18 43 28 69 30 22 2 50 10 62 18 13
8 31 15 41 16 10 0 45 15 78 33 41 21 61 38 63 53 2 14 8 20 18 16 8 -3 14 1
14 7 0 9 7 7 20 -5 19 -17 20 -16 50 14 18 18 42 31 56 31 18 0 24 5 24 21 0
11 4 18 9 14 5 -3 25 4 43 14 18 11 47 27 65 36 17 9 39 25 49 36 9 10 21 19
27 19 5 0 31 18 57 40 26 22 52 40 57 40 6 0 31 19 56 43 25 23 51 41 56 39 6
-2 11 1 11 6 0 16 98 112 114 112 8 0 28 14 44 30 17 17 35 30 40 30 6 0 20
16 32 34 23 38 84 81 100 71 5 -3 10 -26 10 -51 0 -24 4 -52 10 -62 5 -9 20
-80 34 -157 39 -219 64 -341 80 -388 8 -23 20 -70 26 -105 7 -34 17 -65 21
-68 5 -3 9 -20 9 -37 0 -18 7 -54 16 -82 9 -27 20 -68 24 -90 5 -22 18 -71 30
-110 12 -38 25 -83 27 -100 3 -16 9 -34 13 -40 4 -5 13 -36 20 -68 6 -32 18
-70 26 -85 8 -15 14 -33 14 -39 0 -7 7 -31 16 -53 l16 -40 49 4 c38 4 49 1 49
-10 0 -19 16 -18 24 1 7 18 39 20 66 3 14 -9 24 -9 42 -1 30 15 117 23 124 12
3 -5 16 -6 30 -3 13 3 30 2 37 -4 7 -6 30 -7 62 -1 28 4 104 10 170 12 67 2
126 7 133 11 7 4 26 4 43 1 31 -7 248 11 305 25 22 5 36 4 45 -5 12 -11 21
-11 53 0 63 22 137 29 146 14 7 -10 16 -10 52 1 24 7 48 17 53 21 15 10 68 8
82 -3 7 -6 21 -7 30 -2 10 4 38 8 63 10 78 5 122 12 133 23 5 5 23 7 38 4 16
-3 35 -1 41 4 7 5 35 10 62 11 27 1 54 6 60 11 11 9 72 19 166 25 62 5 115 17
147 34 12 7 42 12 67 12 25 0 47 4 51 10 3 5 18 9 33 9 51 -1 117 12 139 27
12 8 34 14 48 14 15 0 35 4 45 10 10 5 38 11 62 13 23 2 60 11 80 21 21 9 41
15 45 14 15 -4 78 14 100 28 18 11 27 12 49 2 22 -10 27 -10 35 5 6 9 18 17
28 17 20 0 81 24 94 36 4 4 34 9 67 11 34 3 73 11 88 19 15 8 34 14 42 14 8 0
38 12 65 25 28 14 68 25 91 25 28 0 47 6 59 20 10 11 21 17 26 14 5 -3 28 6
51 19 24 13 65 29 93 36 27 7 52 17 56 22 3 6 21 11 40 13 19 1 57 13 84 26
28 13 61 25 74 26 13 2 29 8 34 13 6 6 25 11 43 11 17 0 37 7 44 15 12 14 109
49 139 50 8 0 16 6 19 13 2 7 13 10 28 6 17 -5 34 2 61 22 43 33 96 53 140 54
22 0 37 7 45 20 7 11 22 20 33 20 11 0 31 9 45 20 14 11 35 20 48 20 12 0 22
4 22 9 0 5 24 12 53 16 29 4 61 15 73 26 12 12 43 22 73 26 36 4 55 12 62 24
5 11 21 19 34 19 14 0 25 4 25 8 0 5 19 16 43 26 23 9 50 21 59 27 10 5 25 9
35 9 9 0 29 11 44 26 14 14 37 26 50 26 13 1 33 9 44 18 40 33 80 54 97 52 9
-2 22 7 28 19 9 16 14 18 20 9 5 -9 18 -2 45 24 20 20 40 36 43 36 4 0 13 13
20 29 7 16 22 31 33 34 18 5 19 8 7 27 -16 27 -114 85 -170 101 -24 7 -55 21
-70 31 -14 10 -33 18 -42 18 -17 0 -142 37 -166 50 -9 4 -35 11 -58 15 -23 4
-44 11 -47 16 -3 4 -23 16 -43 25 -77 34 -148 69 -172 85 -92 63 -231 149
-239 149 -6 0 -15 9 -21 20 -6 11 -15 20 -20 20 -9 0 -119 100 -268 245 -50
49 -102 99 -115 111 -31 28 -67 76 -67 89 0 7 -11 17 -24 24 -13 7 -30 25 -37
40 -8 14 -26 37 -41 50 -16 13 -28 30 -28 37 0 7 -17 26 -39 43 -23 18 -41 42
-44 59 -3 16 -26 50 -51 76 -25 25 -41 46 -36 46 17 0 11 14 -17 46 -16 16
-34 41 -41 54 -30 60 -66 116 -78 123 -8 4 -14 15 -14 23 0 9 -9 29 -20 44
-11 16 -36 62 -56 104 -20 41 -42 80 -50 87 -8 6 -14 20 -14 31 0 11 -8 32
-18 46 -10 15 -27 47 -36 72 -10 25 -28 65 -42 89 -13 24 -24 54 -24 67 0 12
-4 25 -9 28 -4 3 -18 33 -30 66 -12 33 -26 60 -32 60 -5 0 -9 9 -9 20 0 18 -6
35 -36 105 -22 53 -44 120 -44 138 0 9 -4 17 -10 17 -5 0 -10 10 -10 23 0 12
-9 40 -20 62 -11 22 -20 49 -20 60 0 11 -7 31 -16 44 -9 13 -18 42 -20 66 -1
24 -7 51 -12 61 -22 42 -31 71 -37 118 -9 70 -43 169 -62 183 -14 11 -14 15
-2 29 11 14 11 18 -2 28 -9 6 -16 27 -16 46 -1 36 -16 115 -36 185 -6 22 -11
47 -10 57 2 9 -4 22 -12 28 -10 8 -15 31 -15 67 0 30 -7 67 -15 83 -8 16 -12
35 -9 43 3 8 -2 31 -10 52 -9 21 -16 54 -16 74 -1 20 -7 47 -15 61 -8 14 -15
41 -15 60 0 19 -7 64 -15 100 -9 36 -18 99 -20 140 -3 41 -9 84 -14 95 -26 61
-31 83 -31 150 0 68 -4 98 -31 205 -4 19 -13 87 -20 150 -6 64 -19 133 -29
155 -12 27 -15 44 -8 52 6 7 6 19 0 30 -5 10 -10 37 -11 59 -1 23 -6 57 -11
75 -6 19 -10 69 -10 111 0 42 -4 79 -8 82 -5 3 -14 74 -21 158 -7 84 -17 163
-22 176 -5 13 -9 40 -9 61 0 21 -3 41 -7 45 -5 4 -9 31 -10 59 -1 29 -4 66 -7
82 -3 17 -10 75 -15 130 -6 55 -15 134 -21 175 -6 41 -11 84 -12 95 0 11 -4
45 -10 75 -5 30 -13 89 -18 130 -15 124 -49 361 -60 420 -6 30 -15 84 -20 120
-4 36 -18 112 -30 170 -12 58 -25 130 -30 160 -17 106 -21 125 -30 145 -7 17
-20 74 -47 220 -3 17 -9 35 -13 40 -5 6 -13 36 -19 68 -6 32 -14 63 -18 70 -4
6 -10 29 -14 52 -11 64 -41 169 -50 179 -5 6 -9 25 -9 42 0 18 -4 36 -10 39
-5 3 -10 15 -10 26 0 10 -9 38 -19 62 -20 43 -55 144 -57 162 0 6 -6 24 -14
40 -7 17 -17 41 -22 55 -6 14 -14 33 -19 42 -5 10 -9 22 -9 28 0 17 -162 367
-206 445 -9 17 -22 39 -27 50 -69 132 -103 192 -127 223 -11 13 -20 30 -20 37
0 7 -18 36 -40 64 -22 28 -40 53 -40 56 0 9 -56 89 -98 139 -20 25 -50 63 -67
86 -83 111 -118 151 -255 290 -112 114 -158 153 -240 207 -14 9 -42 28 -64 42
-187 124 -431 202 -678 218 -84 5 -181 -8 -348 -48 -97 -23 -246 -100 -312
-161 -29 -26 -55 -48 -60 -48 -4 0 -7 48 -8 108 0 123 -22 273 -42 299 -6 7
-8 19 -5 26 4 12 -5 45 -37 132 -4 11 -11 29 -15 40 -28 75 -105 207 -146 249
-11 12 -31 36 -45 54 -48 62 -192 155 -235 151 -5 -1 -22 -8 -37 -16z m-5151
-5893 c22 -30 48 -67 58 -82 9 -16 24 -28 31 -28 8 0 14 -8 14 -17 0 -9 50
-66 111 -126 l112 -108 -34 -35 c-18 -19 -38 -34 -43 -34 -18 -1 -66 -48 -66
-65 0 -8 -6 -15 -12 -15 -15 -1 -48 -62 -48 -89 0 -19 27 -46 73 -75 47 -29
104 -13 187 50 38 30 72 54 76 54 3 0 22 13 42 29 20 16 75 46 122 66 47 21
94 44 105 51 11 8 27 14 37 14 10 0 33 9 51 19 19 11 63 26 98 35 35 9 66 21
70 27 3 6 19 9 35 8 16 -2 34 -1 39 2 6 4 46 12 90 18 44 7 100 17 125 24 54
14 272 12 299 -3 13 -7 22 -7 26 0 8 13 62 13 70 0 3 -5 20 -10 37 -10 16 0
54 -7 84 -16 44 -13 58 -13 70 -3 12 10 20 7 43 -15 19 -18 40 -27 62 -28 19
0 58 -13 87 -29 29 -16 62 -29 73 -29 18 0 163 -72 183 -91 6 -5 20 -9 33 -9
13 0 23 -4 23 -9 0 -6 30 -41 68 -79 157 -160 237 -251 237 -269 0 -10 13 -43
29 -74 25 -51 32 -57 70 -65 l41 -9 7 -85 c8 -88 4 -268 -12 -525 -5 -82 -11
-211 -14 -285 -3 -74 -9 -178 -12 -230 -19 -251 -5 -571 30 -740 27 -127 56
-230 66 -230 4 0 12 -18 19 -41 17 -58 90 -167 145 -219 80 -76 94 -88 123
-102 15 -8 55 -29 88 -46 33 -18 72 -32 87 -32 16 0 28 -4 28 -9 0 -11 144
-35 164 -28 12 5 16 21 16 67 0 72 -12 100 -43 100 -12 0 -53 12 -92 25 -38
14 -77 25 -85 25 -9 0 -37 18 -64 40 -26 22 -52 40 -56 40 -5 0 -32 28 -60 63
-60 73 -126 209 -141 293 -6 32 -15 64 -20 70 -25 31 -32 793 -8 872 6 17 8
44 5 60 -3 15 -1 72 4 127 26 255 36 505 26 690 -3 55 -2 114 2 130 l8 30 100
1 c84 1 122 -5 254 -38 l155 -39 35 39 c19 22 51 70 70 107 45 85 168 238 233
290 57 45 122 85 185 115 24 11 50 27 58 35 9 8 23 15 32 15 9 0 31 8 47 18
17 10 41 21 55 24 30 7 111 35 160 56 37 16 94 31 147 37 17 2 58 11 90 19 56
14 329 40 342 32 3 -2 55 -7 115 -10 60 -4 113 -9 117 -12 4 -2 25 -7 46 -9
21 -3 58 -9 83 -14 25 -5 63 -12 85 -16 22 -4 58 -16 81 -26 22 -10 52 -19 67
-19 15 0 41 -9 59 -20 18 -11 40 -20 49 -20 8 0 36 -13 62 -30 26 -16 53 -27
62 -24 8 3 22 -1 30 -10 9 -9 24 -16 33 -16 9 0 37 -14 61 -30 24 -17 50 -30
56 -30 7 0 18 -6 24 -14 32 -39 121 -24 161 27 20 25 27 27 94 27 39 0 126 7
191 16 66 8 139 17 163 20 24 2 69 12 100 20 31 9 73 19 92 23 34 7 150 54
180 72 34 21 81 39 102 39 13 0 45 8 71 17 38 14 53 15 77 6 21 -8 41 -8 65
-2 24 7 41 6 56 -2 12 -6 34 -8 50 -5 15 3 31 2 33 -3 3 -5 27 -12 53 -16 27
-4 53 -11 58 -15 6 -5 38 -18 72 -29 34 -11 73 -32 87 -46 14 -14 34 -25 46
-25 11 0 20 -4 20 -9 0 -5 16 -19 35 -32 19 -13 35 -30 35 -37 0 -7 15 -19 34
-27 22 -9 36 -23 40 -40 4 -14 13 -25 21 -25 8 0 15 -7 15 -15 0 -8 9 -19 20
-25 11 -6 20 -19 20 -28 0 -10 9 -28 20 -40 11 -12 20 -25 20 -29 0 -5 14 -23
30 -41 17 -18 30 -44 30 -56 0 -13 14 -40 30 -61 17 -21 30 -49 30 -62 0 -13
6 -36 14 -51 16 -32 40 -175 36 -217 -3 -39 -2 -60 6 -113 4 -27 2 -48 -6 -57
-6 -7 -13 -34 -14 -60 -2 -25 -6 -48 -9 -52 -4 -3 -2 -15 4 -25 8 -14 8 -23 0
-31 -6 -6 -11 -23 -11 -39 0 -15 -7 -31 -16 -36 -11 -6 -18 -27 -22 -61 -2
-28 -9 -54 -13 -57 -5 -3 -9 -16 -9 -29 0 -12 -7 -25 -15 -28 -18 -8 -49 -75
-46 -103 2 -15 -5 -23 -23 -28 -13 -3 -28 -16 -32 -28 -3 -12 -19 -36 -35 -52
-16 -17 -29 -35 -29 -39 0 -18 -206 -228 -243 -247 -16 -8 -41 -27 -58 -42
-16 -15 -35 -28 -42 -28 -7 0 -26 -13 -42 -30 -16 -16 -33 -30 -37 -30 -5 0
-14 -5 -21 -10 -49 -42 -62 -50 -79 -50 -10 0 -21 -7 -24 -15 -3 -8 -15 -17
-25 -20 -11 -4 -24 -17 -29 -29 -7 -18 -18 -24 -55 -28 -25 -3 -54 -13 -64
-22 -11 -10 -47 -31 -80 -47 -34 -17 -67 -39 -74 -50 -12 -20 -73 -43 -117
-43 -17 -1 -26 -7 -28 -21 -2 -11 -7 -29 -12 -40 -17 -42 -29 -82 -34 -123 -4
-24 -15 -62 -26 -85 -21 -48 -42 -121 -73 -256 -14 -65 -28 -101 -44 -117 -12
-12 -25 -41 -29 -63 -4 -23 -10 -41 -15 -41 -5 0 -9 -12 -9 -27 0 -27 -34
-102 -92 -203 -25 -44 -30 -60 -25 -74 10 -24 8 -31 -5 -31 -7 0 -13 -12 -13
-27 0 -16 -10 -34 -27 -48 -16 -12 -28 -30 -28 -39 0 -10 -13 -35 -30 -56 -16
-20 -32 -46 -36 -58 -4 -12 -15 -34 -26 -49 -10 -15 -24 -42 -30 -60 -6 -18
-19 -41 -29 -51 -11 -10 -19 -25 -19 -34 0 -9 -15 -34 -33 -57 -40 -51 -87
-123 -87 -134 0 -5 -9 -17 -20 -27 -11 -10 -20 -24 -20 -32 0 -7 -4 -13 -9
-13 -10 0 -44 -51 -79 -117 -12 -24 -33 -49 -47 -55 -14 -6 -25 -19 -25 -29 0
-9 -7 -20 -16 -23 -8 -3 -14 -14 -13 -23 4 -31 -12 -53 -37 -53 -17 0 -31 -11
-48 -38 -13 -20 -31 -43 -40 -51 -9 -7 -16 -19 -16 -25 0 -6 -14 -20 -30 -31
-16 -11 -30 -23 -30 -27 0 -10 -228 -233 -321 -313 -44 -38 -85 -80 -90 -92
-5 -15 -17 -23 -32 -23 -13 0 -32 -9 -43 -21 -10 -12 -35 -29 -54 -39 -19 -10
-44 -27 -54 -39 -11 -12 -25 -21 -31 -21 -7 0 -18 -7 -25 -15 -7 -9 -29 -23
-49 -32 -20 -9 -47 -26 -61 -39 -14 -12 -51 -36 -83 -53 -32 -17 -65 -37 -73
-46 -9 -8 -23 -15 -32 -16 -9 0 -37 -11 -62 -24 -96 -51 -167 -85 -178 -85 -6
0 -24 -11 -40 -24 -17 -15 -36 -23 -48 -20 -22 6 -114 -32 -114 -47 0 -5 -11
-7 -24 -3 -13 3 -27 1 -30 -5 -4 -6 -18 -11 -32 -11 -14 0 -50 -12 -80 -26
-31 -15 -64 -24 -76 -21 -14 4 -22 0 -25 -14 -6 -22 -14 -24 -30 -8 -12 12
-130 -4 -167 -24 -11 -5 -60 -11 -110 -13 -50 -2 -107 -6 -126 -8 -63 -7 -398
-8 -409 -1 -10 5 -96 14 -166 16 -11 1 -51 7 -88 15 -37 8 -72 12 -76 10 -4
-3 -27 2 -52 11 -24 8 -71 17 -104 20 -32 2 -62 7 -65 11 -9 13 -60 32 -86 32
-13 0 -46 9 -72 21 -26 12 -56 25 -67 29 -11 4 -45 19 -75 33 -30 13 -70 28
-87 31 -18 4 -33 12 -33 17 0 5 -8 9 -18 9 -10 0 -22 4 -28 8 -5 5 -25 15 -44
23 -19 7 -54 26 -76 41 -23 15 -49 28 -58 28 -9 0 -24 9 -33 20 -10 11 -27 20
-39 20 -12 0 -24 4 -26 8 -7 18 -67 52 -81 46 -10 -3 -22 4 -32 20 -10 14 -22
26 -27 26 -5 0 -21 14 -35 30 -13 17 -33 30 -44 30 -10 0 -19 3 -19 8 0 4 -21
20 -47 36 -25 17 -73 54 -107 83 -33 29 -63 53 -66 53 -3 0 -38 32 -78 70 -40
39 -78 70 -85 70 -7 0 -19 11 -27 24 -8 13 -48 59 -89 103 -40 43 -97 103
-125 133 -74 78 -156 175 -156 184 0 7 -27 39 -72 86 -16 15 -28 32 -28 38 0
5 -7 15 -15 22 -9 7 -22 28 -31 46 -9 18 -24 36 -35 39 -10 4 -19 14 -19 24 0
10 -15 35 -34 57 -18 21 -36 50 -41 62 -8 27 -61 108 -76 117 -5 4 -9 14 -9
24 0 10 -7 24 -15 31 -9 7 -26 36 -39 64 -13 28 -33 60 -45 70 -11 11 -21 25
-21 33 0 7 -4 22 -10 33 -5 11 -14 28 -19 38 -5 10 -20 41 -34 68 -14 27 -37
76 -52 109 -70 153 -108 230 -116 236 -6 3 -12 23 -16 45 -3 21 -16 59 -28 84
-13 25 -28 65 -35 90 -7 25 -21 63 -31 84 -10 22 -19 52 -19 67 0 14 -9 38
-20 52 -11 14 -20 35 -20 48 0 12 -9 50 -20 83 -29 87 -37 116 -45 156 -8 42
-34 138 -45 165 -5 11 -11 36 -14 55 -13 97 -18 127 -26 145 -5 11 -18 83 -30
160 -11 77 -24 156 -29 175 -12 46 -30 178 -36 265 -3 39 -11 135 -18 215 -17
195 -8 1019 12 1044 5 6 11 52 15 101 11 168 26 295 46 375 5 19 14 69 21 110
12 74 26 108 39 93 3 -4 24 -33 47 -63z m3372 -283 c9 -8 39 -21 66 -31 28
-10 59 -21 70 -26 35 -15 89 -29 140 -36 67 -9 106 -24 84 -33 -13 -5 -56 -53
-189 -211 -16 -19 -46 -60 -68 -90 -43 -62 -34 -60 -172 -39 -47 7 -136 13
-198 14 l-113 0 -6 27 c-8 41 -23 49 -71 36 -40 -10 -43 -9 -65 18 -28 37 -87
134 -87 145 0 5 12 11 28 15 15 3 45 11 67 17 22 5 50 11 61 13 12 1 56 18 98
38 42 20 80 36 83 36 4 0 21 13 38 29 54 52 126 89 174 90 25 1 52 -5 60 -12z
m-4269 -417 c0 -5 -4 -10 -10 -10 -5 0 -10 5 -10 10 0 6 5 10 10 10 6 0 10 -4
10 -10z m326 -4 c22 -1 47 -6 55 -11 8 -5 27 -9 44 -10 30 0 30 0 30 -58 0
-38 5 -61 14 -66 10 -7 11 -13 2 -29 -14 -26 -15 -371 -1 -439 5 -26 11 -102
14 -168 3 -66 8 -135 11 -153 4 -20 2 -39 -5 -47 -7 -8 -8 -20 -4 -26 4 -7 9
-35 10 -63 2 -28 8 -91 14 -141 6 -49 12 -110 15 -135 2 -25 11 -83 20 -130 9
-47 16 -100 16 -119 -1 -18 3 -39 8 -45 4 -6 9 -18 9 -26 2 -33 31 -198 42
-235 6 -22 14 -53 17 -70 2 -16 7 -37 10 -45 4 -8 8 -36 10 -62 4 -56 -3 -59
-69 -29 -24 11 -83 36 -133 57 -49 20 -101 47 -116 60 -14 13 -30 24 -37 24
-19 0 -83 39 -133 81 -26 22 -51 39 -56 39 -11 0 -163 150 -163 161 0 5 -9 9
-20 9 -13 0 -26 13 -39 38 -10 20 -35 54 -55 74 -20 20 -36 40 -36 43 0 4 -11
21 -24 38 -13 18 -27 42 -30 53 -4 12 -15 29 -26 39 -11 10 -20 26 -20 37 0
10 -11 35 -24 56 -13 20 -27 56 -31 79 -4 23 -15 53 -26 66 -10 14 -16 26 -14
29 3 3 0 27 -6 54 -23 105 -47 404 -31 404 9 0 18 43 27 131 3 37 30 108 76
204 16 33 29 65 29 72 0 6 11 20 24 31 14 10 28 30 31 45 4 14 14 28 23 31 17
5 52 26 62 36 3 3 17 11 33 19 15 8 27 18 27 23 0 4 8 8 19 8 10 0 24 7 31 15
7 8 18 14 24 14 6 -1 18 1 26 4 8 3 41 11 72 17 32 6 60 14 62 18 4 6 94 6
192 -2z m6054 -4956 c0 -5 -4 -10 -10 -10 -5 0 -10 5 -10 10 0 6 5 10 10 10 6
0 10 -4 10 -10z"/>
<path d="M14505 12081 c-25 -49 -47 -122 -41 -138 3 -8 1 -103 -5 -211 -16
-267 -15 -262 -28 -302 -6 -19 -11 -51 -11 -71 0 -20 -13 -77 -30 -127 -16
-50 -30 -102 -30 -115 0 -13 -9 -32 -20 -42 -11 -10 -20 -25 -21 -34 -3 -62
-221 -334 -298 -372 -14 -7 -54 -32 -89 -56 -35 -24 -71 -43 -80 -43 -9 0 -41
-11 -70 -25 -30 -14 -62 -25 -71 -25 -10 0 -53 -10 -97 -21 -67 -18 -108 -22
-274 -22 l-195 -1 -95 33 c-52 18 -113 42 -134 52 -22 10 -45 19 -52 19 -6 0
-17 7 -24 15 -7 9 -29 23 -49 32 -20 10 -76 51 -124 93 -49 41 -102 83 -118
93 -18 12 -29 27 -29 42 0 13 -10 29 -25 39 -14 9 -25 21 -25 27 0 6 -18 33
-40 59 -22 26 -40 54 -40 61 0 8 -13 41 -29 74 -17 33 -38 87 -47 120 -10 33
-21 64 -26 70 -4 5 -8 22 -8 39 0 16 -7 53 -17 82 l-16 53 33 28 c18 15 45 36
59 45 14 9 51 35 81 57 53 39 130 81 147 81 5 0 14 5 21 12 7 7 42 22 78 34
56 18 64 18 59 5 -21 -53 -28 -114 -17 -132 17 -27 5 -44 -18 -24 -14 13 -22
14 -46 4 -78 -31 -77 -29 -70 -82 4 -26 17 -66 29 -87 28 -50 111 -120 142
-120 13 0 26 -4 29 -9 6 -9 111 -27 136 -23 8 2 24 4 35 6 11 2 32 4 47 5 15
0 34 8 42 16 9 9 36 25 62 37 97 43 224 205 224 286 0 33 1 34 32 28 18 -3 36
-13 41 -22 5 -9 16 -13 28 -9 15 5 19 2 19 -14 0 -17 6 -21 33 -21 17 0 43 -7
57 -15 14 -8 35 -19 48 -24 12 -6 22 -15 22 -20 0 -13 48 -61 61 -61 5 0 19
-9 31 -20 13 -12 26 -16 32 -11 19 14 76 9 76 -7 0 -10 7 -13 23 -8 12 3 32 6
44 6 13 0 24 8 28 20 3 11 12 20 19 20 25 0 46 36 46 77 0 33 -6 46 -30 66
-16 14 -30 35 -30 47 0 13 -8 24 -20 27 -11 3 -20 9 -20 14 0 5 -8 9 -17 9 -9
0 -26 9 -37 19 -31 29 -135 83 -145 76 -6 -3 -23 8 -40 24 -36 35 -195 113
-266 130 -27 7 -56 17 -64 24 -52 44 -501 52 -552 10 -8 -6 -33 -14 -56 -18
-23 -4 -78 -24 -122 -46 -44 -21 -84 -39 -90 -39 -5 0 -21 -13 -34 -30 -14
-16 -29 -30 -32 -30 -27 0 -216 -168 -228 -202 -4 -10 -10 -18 -15 -18 -17 0
-34 -58 -27 -89 5 -23 1 -38 -15 -61 -18 -25 -19 -34 -10 -45 7 -9 9 -26 6
-41 -7 -28 21 -155 61 -274 35 -104 105 -238 170 -323 75 -101 216 -241 293
-294 36 -24 80 -55 99 -69 19 -13 46 -27 60 -31 14 -3 37 -15 51 -25 30 -22
216 -88 249 -88 13 0 51 -7 85 -16 80 -22 268 -21 426 0 19 3 58 8 85 12 28 3
60 12 72 20 12 8 29 11 37 8 8 -3 25 1 38 10 12 9 30 16 40 16 10 0 41 13 70
28 29 16 75 36 101 46 27 10 62 33 78 51 18 19 44 36 63 39 21 4 38 15 47 32
7 14 26 32 41 40 15 8 28 20 28 27 0 7 20 30 45 52 25 22 45 45 45 50 0 6 14
22 30 37 17 14 30 35 30 45 0 10 11 27 25 37 14 10 25 25 25 32 0 8 4 14 9 14
5 0 18 24 29 53 11 28 27 66 36 82 9 17 16 40 16 52 0 12 5 25 11 28 5 4 8 12
6 18 -2 7 2 20 11 30 8 9 19 36 23 60 4 23 12 60 18 82 6 22 11 60 11 86 0 25
5 50 11 56 8 8 13 68 14 173 2 89 5 163 7 165 2 2 1 37 -3 77 -4 40 -5 87 -3
104 4 20 0 35 -10 43 -9 8 -16 20 -16 29 0 22 -48 82 -66 82 -7 0 -14 5 -14
11 0 8 -58 39 -74 39 -3 0 -12 -13 -21 -29z m-800 -591 c-3 -5 -15 -10 -26
-10 -10 0 -19 5 -19 10 0 6 12 10 26 10 14 0 23 -4 19 -10z"/>
<path d="M10308 11859 c-7 -5 -32 -6 -54 -3 -26 4 -44 2 -48 -5 -4 -6 -22 -11
-41 -11 -19 0 -37 -4 -40 -10 -3 -5 -21 -10 -38 -10 -18 0 -47 -9 -65 -20 -18
-11 -43 -20 -57 -20 -13 0 -27 -5 -30 -11 -4 -5 -30 -21 -59 -33 -29 -13 -56
-31 -59 -40 -4 -9 -15 -16 -26 -16 -11 0 -25 -9 -31 -20 -6 -11 -15 -20 -21
-20 -24 0 -204 -185 -218 -224 -2 -6 -12 -23 -22 -38 -28 -39 -24 -73 10 -97
16 -12 38 -21 48 -21 10 0 51 32 91 70 40 39 76 70 81 70 5 0 11 3 13 8 6 14
87 72 102 72 8 0 16 4 18 8 4 11 73 52 87 52 7 0 31 9 53 20 23 11 45 20 49
20 4 0 10 -16 13 -36 11 -53 -13 -84 -64 -84 -27 0 -40 -4 -40 -13 0 -8 -9
-22 -21 -33 -18 -16 -20 -26 -15 -64 3 -24 18 -66 32 -93 27 -52 81 -117 97
-117 5 0 22 -9 38 -21 20 -14 40 -20 60 -17 17 3 54 1 84 -4 40 -6 60 -4 81 7
16 8 37 15 47 15 9 0 17 4 17 9 0 5 13 14 29 20 25 11 71 60 71 76 0 4 13 26
30 50 41 60 48 82 51 161 4 99 26 125 73 89 11 -8 28 -15 39 -15 10 0 34 -12
53 -26 18 -14 40 -24 48 -21 8 3 22 -3 31 -13 9 -10 31 -22 49 -26 17 -3 44
-16 60 -27 18 -12 42 -20 61 -19 19 2 42 -5 57 -18 15 -11 31 -20 37 -20 6 0
11 -7 11 -15 0 -8 5 -15 10 -15 6 0 10 9 10 20 0 11 5 20 10 20 6 0 10 -4 10
-10 0 -18 18 -10 23 10 4 15 14 20 40 20 l35 0 4 61 c2 36 -1 64 -8 70 -6 5
-17 27 -24 49 -9 27 -19 40 -32 40 -11 0 -18 7 -18 20 0 20 -32 44 -44 33 -4
-4 -9 3 -13 15 -4 17 -13 22 -39 22 -23 0 -37 6 -44 19 -5 11 -24 22 -42 26
-18 4 -46 13 -63 20 -40 18 -111 41 -155 50 -19 4 -41 12 -48 18 -9 7 -16 7
-24 -1 -16 -16 -28 -15 -28 2 0 29 -294 69 -332 45z"/>
<path d="M8910 11801 c-27 -5 -39 -14 -51 -41 -18 -38 -23 -126 -9 -175 5 -16
14 -57 20 -90 6 -33 20 -88 31 -121 10 -34 19 -69 19 -78 0 -8 9 -31 20 -51
11 -20 20 -42 20 -51 0 -14 68 -168 91 -204 5 -8 20 -36 33 -61 14 -26 32 -49
41 -53 9 -3 14 -10 11 -15 -3 -5 10 -26 29 -47 19 -22 35 -42 35 -46 0 -4 25
-33 56 -65 30 -32 66 -70 79 -85 14 -15 43 -39 65 -53 22 -14 40 -29 40 -34 0
-12 67 -51 87 -51 8 0 17 -8 20 -19 5 -18 42 -41 67 -41 8 0 19 -7 26 -15 7
-8 15 -13 19 -10 4 2 15 -5 24 -16 9 -10 25 -19 36 -19 10 0 21 -7 25 -15 3
-9 18 -15 34 -15 16 0 35 -7 42 -15 7 -8 26 -15 42 -15 16 0 43 -7 60 -16 74
-38 321 -56 493 -35 94 11 167 27 212 47 17 8 38 14 47 14 21 0 134 58 144 74
11 19 69 56 86 56 9 0 16 4 16 9 0 5 28 38 63 75 34 36 77 87 95 113 56 83
102 155 102 161 0 3 7 14 17 24 32 35 112 197 132 268 7 25 17 56 23 70 13 39
12 134 -3 159 -8 11 -23 21 -35 21 -23 0 -74 -35 -74 -51 0 -5 -32 -76 -70
-156 -64 -133 -92 -179 -184 -312 -17 -23 -35 -50 -41 -58 -11 -18 -113 -121
-141 -143 -81 -65 -296 -147 -409 -156 -33 -3 -67 -7 -75 -10 -21 -8 -185 -9
-250 -2 -30 4 -68 12 -85 18 -16 6 -55 16 -85 22 -30 5 -67 18 -81 29 -15 10
-32 19 -38 19 -14 0 -91 42 -132 72 -19 13 -47 31 -63 39 -39 19 -220 199
-279 277 -27 35 -64 94 -84 130 -20 37 -48 90 -63 117 -15 28 -31 66 -35 85
-4 19 -13 44 -19 55 -7 11 -16 36 -20 55 -8 44 -45 170 -56 190 -4 9 -11 54
-15 100 -4 47 -11 93 -16 102 -11 21 -39 48 -47 47 -4 -1 -23 -4 -42 -8z"/>
<path d="M12450 8683 c-163 -105 -199 -130 -225 -153 -16 -15 -57 -38 -90 -50
-54 -20 -77 -22 -242 -21 -198 1 -230 -6 -281 -57 -77 -76 -66 -197 26 -289
33 -34 145 -93 175 -93 9 0 18 -4 21 -9 16 -26 292 -62 321 -42 6 4 37 8 70
10 256 10 515 270 515 516 0 64 -3 75 -32 116 -42 57 -57 68 -90 69 -15 0 -30
5 -33 10 -10 16 -107 11 -135 -7z"/>
</g>
</svg>
